<svg width="51" height="58" viewBox="0 0 51 58" fill="none" xmlns="http://www.w3.org/2000/svg">
<path d="M13.9705 25.7019L19.9825 17.2869C17.4835 16.8719 12.8945 16.7799 9.13652 20.5219C3.21152 26.4209 0.811523 39.1629 0.311523 42.2479L15.3695 57.2399C18.0805 57.0079 30.0825 55.4129 41.6485 43.8999C41.7705 43.6509 44.5885 41.5789 42.2845 39.2859C41.1845 38.1909 39.3655 38.2119 38.2425 39.3299C37.6705 39.8999 36.7815 39.9069 36.2215 39.3499C35.6615 38.7929 35.6695 37.9069 36.2415 37.3379L40.3285 33.2689C42.4045 31.2019 40.4475 27.7139 37.5485 28.5519L34.2035 31.4029C33.5925 31.9329 32.6835 31.8419 32.1815 31.2629C31.6625 30.6659 31.5 30.5 32.3645 29.2499C32.3645 29.2499 33.3082 28.5519 35.6745 26.59C38.4835 24.261 34.9495 20.143 32.1815 22.5L28.1815 25.4499C27.6525 25.8979 26.8415 25.9069 26.3215 25.4299C25.7205 24.9129 25.7065 24.1679 26.0995 23.5799L38.7865 3.94393C40.6405 1.44393 36.9915 -1.33307 35.0375 1.18693L16.2795 27.3069C15.8275 27.9569 14.9155 28.1069 14.2945 27.6519C14.143 27.5469 14.0142 27.4126 13.9156 27.2568C13.817 27.1011 13.7506 26.9271 13.7205 26.7453C13.6904 26.5634 13.6971 26.3774 13.7402 26.1981C13.7833 26.0189 13.862 25.8502 13.9715 25.7019H13.9705Z" fill="#3B4262"/>
</svg>
