<svg width="53" height="53" viewBox="0 0 53 53" fill="none" xmlns="http://www.w3.org/2000/svg">
<g clip-path="url(#clip0_128_44)">
<path fill-rule="evenodd" clip-rule="evenodd" d="M13.4051 -0.0517578C13.8882 -0.0517578 14.3712 -0.0517578 14.8543 -0.0517578C15.0366 0.0323708 15.2092 0.135886 15.3719 0.258789C15.4208 0.404365 15.5244 0.473375 15.6824 0.46582C16.3245 0.955982 16.6695 1.61158 16.7176 2.43262C16.1939 5.47093 15.6591 8.50739 15.1131 11.542C15.1028 11.7649 15.0165 11.9373 14.8543 12.0596C14.5093 12.1976 14.2677 12.4392 14.1297 12.7842C13.9812 13.0478 13.8088 13.2894 13.6121 13.5088C13.4666 13.5578 13.3975 13.6613 13.4051 13.8193C13.24 14.3319 13.0847 14.8495 12.9393 15.3721C12.8702 19.0642 12.8702 22.7562 12.9393 26.4482C13.0974 27.3161 13.4253 28.1098 13.9227 28.8291C13.9151 28.9872 13.9841 29.0907 14.1297 29.1396C14.4058 29.3467 14.6473 29.5882 14.8543 29.8643C14.9033 30.0098 15.0068 30.0788 15.1648 30.0713C15.2901 30.116 15.3936 30.1851 15.4754 30.2783C15.5244 30.4239 15.6279 30.4929 15.7859 30.4854C17.5457 31.3135 19.3055 31.3135 21.0652 30.4854C21.2233 30.4929 21.3268 30.4239 21.3758 30.2783C21.5098 30.176 21.6478 30.0725 21.7898 29.9678C21.9479 29.9753 22.0514 29.9063 22.1004 29.7607C22.1694 29.6228 22.273 29.5192 22.4109 29.4502C22.5253 29.5641 22.6633 29.6331 22.825 29.6572C22.963 29.7263 23.0665 29.8298 23.1356 29.9678C23.1845 30.1133 23.288 30.1824 23.4461 30.1748C23.4951 30.3203 23.5986 30.3894 23.7566 30.3818C25.7623 31.4033 27.7291 31.3344 29.657 30.1748C29.7261 30.2093 29.795 30.2438 29.8641 30.2783C30.0677 30.5865 30.2747 30.897 30.4852 31.21C30.5098 31.4071 30.6133 31.5451 30.7957 31.624C30.9337 31.6931 31.0372 31.7966 31.1063 31.9346C31.1552 32.0801 31.2587 32.1492 31.4168 32.1416C31.7052 32.3086 31.9813 32.4983 32.2449 32.7109C32.1886 32.7852 32.1196 32.8369 32.0379 32.8662C31.8798 32.8587 31.7763 32.9277 31.7273 33.0732C31.3823 33.4873 31.0027 33.8669 30.5887 34.2119C30.4431 34.2609 30.3741 34.3644 30.3816 34.5225C30.3472 34.626 30.2781 34.695 30.1746 34.7295C30.0291 34.7785 29.96 34.882 29.9676 35.04C29.8667 35.2776 29.7287 35.4846 29.5535 35.6611C29.408 35.7101 29.3389 35.8136 29.3465 35.9717C28.3598 37.7794 27.9284 39.7117 28.0525 41.7686C28.1402 41.9438 28.2264 42.1164 28.3113 42.2861C28.3113 42.4241 28.3804 42.4932 28.5184 42.4932C29.0344 42.8164 29.5864 42.8855 30.1746 42.7002C30.3327 42.7078 30.4362 42.6387 30.4852 42.4932C30.4852 42.4241 30.5196 42.3896 30.5887 42.3896C30.7342 42.3407 30.8033 42.2372 30.7957 42.0791C30.8798 40.7712 31.1386 39.4945 31.5721 38.249C31.7469 37.8288 31.9712 37.4492 32.2449 37.1104C32.3905 37.0614 32.4595 36.9579 32.452 36.7998C32.452 36.7308 32.4864 36.6963 32.5555 36.6963C32.701 36.6473 32.7701 36.5438 32.7625 36.3857C32.866 36.2132 33.004 36.0752 33.1766 35.9717C33.3146 35.9026 33.4181 35.7991 33.4871 35.6611C33.5906 35.4886 33.7286 35.3506 33.9012 35.2471C34.0592 35.2546 34.1628 35.1856 34.2117 35.04C34.9814 34.4481 35.8441 34.0169 36.7996 33.7461C37.6918 33.5788 38.589 33.458 39.491 33.3838C39.6491 33.3913 39.7526 33.3223 39.8016 33.1768C39.8016 33.1077 39.836 33.0732 39.9051 33.0732C40.0506 33.0243 40.1197 32.9208 40.1121 32.7627C40.4048 32.19 40.3702 31.638 40.0086 31.1064C40.0086 30.8994 39.9051 30.7959 39.6981 30.7959C39.5056 30.6827 39.2986 30.5964 39.077 30.5371C37.5933 30.5026 36.1095 30.4681 34.6258 30.4336C34.2355 30.3589 33.8905 30.2036 33.5906 29.9678C33.5417 29.8222 33.4382 29.7532 33.2801 29.7607C33.1075 29.6572 32.9695 29.5192 32.866 29.3467C32.8736 29.1886 32.8045 29.0851 32.659 29.0361C32.2297 28.423 32.0571 27.733 32.1414 26.9658C32.1587 26.6208 32.1759 26.2757 32.1932 25.9307C32.2744 25.7458 32.3951 25.5905 32.5555 25.4648C36.3165 25.3958 40.0776 25.3958 43.8387 25.4648C44.1721 25.5791 44.4482 25.7689 44.6668 26.0342C44.6592 26.1922 44.7283 26.2958 44.8738 26.3447C45.0077 26.4836 45.0939 26.6562 45.1326 26.8623C45.2017 30.9339 45.2017 35.0056 45.1326 39.0771C44.9004 40.7599 44.2965 42.2782 43.3211 43.6318C43.1756 43.6808 43.1065 43.7843 43.1141 43.9424C42.9897 44.1918 42.8173 44.3988 42.5965 44.5635C42.4509 44.6124 42.3819 44.716 42.3895 44.874C42.2651 45.1234 42.0927 45.3304 41.8719 45.4951C41.7263 45.5441 41.6573 45.6476 41.6648 45.8057C41.6304 45.9092 41.5613 45.9782 41.4578 46.0127C41.3123 46.0617 41.2432 46.1652 41.2508 46.3232C41.2508 46.3923 41.2163 46.4268 41.1473 46.4268C41.0017 46.4757 40.9327 46.5792 40.9402 46.7373C40.9058 46.8408 40.8367 46.9099 40.7332 46.9443C40.5877 46.9933 40.5186 47.0968 40.5262 47.2549C40.5262 47.3239 40.4917 47.3584 40.4227 47.3584C40.2771 47.4074 40.2081 47.5109 40.2156 47.6689C40.1812 47.7725 40.1121 47.8415 40.0086 47.876C39.8631 47.9249 39.794 48.0285 39.8016 48.1865C39.8016 48.2556 39.7671 48.29 39.6981 48.29C39.5525 48.339 39.4835 48.4425 39.491 48.6006C39.4565 48.7041 39.3875 48.7731 39.284 48.8076C39.1384 48.8566 39.0694 48.9601 39.077 49.1182C38.8006 49.4817 38.5418 49.8612 38.3006 50.2568C38.2661 50.7054 38.2315 51.154 38.1971 51.6025C38.1722 51.846 38.086 52.053 37.9383 52.2236C37.7657 52.3271 37.6277 52.4651 37.5242 52.6377C37.4408 52.7648 37.3373 52.8683 37.2137 52.9482C29.2774 52.9482 21.3413 52.9482 13.4051 52.9482C12.915 52.7165 12.5872 52.3369 12.4217 51.8096C12.4151 50.5945 12.3461 49.3869 12.2147 48.1865C11.8347 47.7205 11.438 47.272 11.0242 46.8408C11.0318 46.6828 10.9627 46.5792 10.8172 46.5303C10.7137 46.4958 10.6446 46.4268 10.6102 46.3232C10.6177 46.1652 10.5487 46.0617 10.4031 46.0127C8.95882 43.9761 8.11343 41.6988 7.86699 39.1807C7.6998 33.8689 7.66528 28.5551 7.76348 23.2393C9.05239 15.9888 10.3636 8.74273 11.6971 1.50098C11.7692 1.28521 11.89 1.11268 12.0594 0.983398C12.2664 0.845378 12.439 0.672852 12.577 0.46582C12.8216 0.240146 13.0976 0.0676195 13.4051 -0.0517578Z" fill="#3B4060"/>
<path opacity="0.333" fill-rule="evenodd" clip-rule="evenodd" d="M15.3721 0.25886C15.5301 0.251305 15.6337 0.320315 15.6826 0.465891C15.5245 0.473446 15.421 0.404436 15.3721 0.25886Z" fill="black"/>
<path opacity="0.352" fill-rule="evenodd" clip-rule="evenodd" d="M12.5771 0.46582C12.4392 0.672852 12.2666 0.845378 12.0596 0.983398C12.1286 0.707356 12.3011 0.534831 12.5771 0.46582Z" fill="black"/>
<path opacity="0.336" fill-rule="evenodd" clip-rule="evenodd" d="M14.8545 12.0596C14.6475 12.3356 14.406 12.5771 14.1299 12.7842C14.2679 12.4392 14.5095 12.1976 14.8545 12.0596Z" fill="black"/>
<path fill-rule="evenodd" clip-rule="evenodd" d="M27.6905 12.8876C27.7394 13.0332 27.8429 13.1022 28.001 13.0947C28.0799 13.2771 28.218 13.3806 28.4151 13.4052C28.4075 13.5633 28.4766 13.6668 28.6221 13.7158C28.8838 13.9632 29.0391 14.2737 29.0879 14.6474C29.157 18.443 29.157 22.2385 29.0879 26.0341C29.0479 26.3549 28.9271 26.631 28.7256 26.8622C28.5801 26.9112 28.511 27.0147 28.5186 27.1728C28.4495 27.3108 28.346 27.4143 28.208 27.4833C28.05 27.4758 27.9464 27.5448 27.8975 27.6904C27.1915 28.1235 26.4324 28.2097 25.6201 27.9492C25.4044 27.877 25.2319 27.7562 25.1026 27.5869C25.0536 27.4413 24.9501 27.3723 24.792 27.3798C24.723 27.3798 24.6885 27.3454 24.6885 27.2763C24.6961 27.1182 24.627 27.0147 24.4815 26.9658C24.2187 26.6816 24.0635 26.3366 24.0157 25.9306C23.9466 22.2385 23.9466 18.5465 24.0157 14.8544C24.0692 14.3684 24.259 13.9544 24.585 13.6122C24.7575 13.5087 24.8955 13.3707 24.999 13.1982C25.8337 12.5318 26.7309 12.4282 27.6905 12.8876Z" fill="#393F5D"/>
<path opacity="0.359" fill-rule="evenodd" clip-rule="evenodd" d="M27.6904 12.8878C27.8485 12.8802 27.952 12.9493 28.001 13.0948C27.8429 13.1024 27.7394 13.0333 27.6904 12.8878Z" fill="black"/>
<path opacity="0.371" fill-rule="evenodd" clip-rule="evenodd" d="M28.001 13.0947C28.1981 13.1194 28.3362 13.2229 28.415 13.4053C28.2179 13.3806 28.0799 13.2771 28.001 13.0947Z" fill="black"/>
<path opacity="0.333" fill-rule="evenodd" clip-rule="evenodd" d="M24.999 13.1982C24.8955 13.3708 24.7575 13.5088 24.585 13.6123C24.6194 13.3708 24.7575 13.2327 24.999 13.1982Z" fill="black"/>
<path opacity="0.353" fill-rule="evenodd" clip-rule="evenodd" d="M28.4146 13.4053C28.5602 13.4542 28.6292 13.5578 28.6217 13.7158C28.4761 13.6669 28.4071 13.5633 28.4146 13.4053Z" fill="black"/>
<path opacity="0.339" fill-rule="evenodd" clip-rule="evenodd" d="M13.6119 13.5088C13.6194 13.6669 13.5504 13.7704 13.4049 13.8193C13.3973 13.6613 13.4663 13.5578 13.6119 13.5088Z" fill="black"/>
<path fill-rule="evenodd" clip-rule="evenodd" d="M19.4092 14.0264C19.5142 14.1479 19.6522 14.2169 19.8233 14.2334C19.8722 14.379 19.9757 14.448 20.1338 14.4405C20.2373 14.4749 20.3064 14.544 20.3408 14.6475C20.3333 14.8056 20.4023 14.9091 20.5479 14.958C20.72 15.1644 20.8408 15.4059 20.9102 15.6827C20.9792 19.2022 20.9792 22.7217 20.9102 26.2413C20.8715 26.4474 20.7852 26.6199 20.6514 26.7588C20.5058 26.8078 20.4368 26.9113 20.4444 27.0694C19.5819 28.1207 18.5122 28.3795 17.2354 27.8457C17.0705 27.7475 16.9325 27.6268 16.8213 27.4834C16.7523 27.3455 16.6488 27.2419 16.5108 27.1729C16.2184 26.9348 16.0287 26.6243 15.9414 26.2413C15.8724 22.7217 15.8724 19.2022 15.9414 15.6827C15.9654 15.5546 16.0172 15.4511 16.0967 15.3721C16.2182 15.2671 16.2872 15.1292 16.3037 14.958C16.4493 14.9091 16.5183 14.8056 16.5108 14.6475C16.5452 14.544 16.6143 14.4749 16.7178 14.4405C16.8759 14.448 16.9794 14.379 17.0283 14.2334C17.1864 14.241 17.2899 14.172 17.3389 14.0264C17.6696 13.868 18.0319 13.7991 18.4258 13.8194C18.6846 13.8367 18.9434 13.8538 19.2022 13.8711C19.297 13.8999 19.3659 13.9517 19.4092 14.0264Z" fill="#3B4160"/>
<path fill-rule="evenodd" clip-rule="evenodd" d="M35.9717 14.1299C36.0206 14.2755 36.1242 14.3445 36.2822 14.3369C36.4548 14.4405 36.5928 14.5784 36.6963 14.751C36.6887 14.9091 36.7578 15.0126 36.9033 15.0615C37.1075 15.329 37.211 15.6396 37.2139 15.9932C37.2139 18.098 37.2139 20.2029 37.2139 22.3076C35.5576 22.3076 33.9014 22.3076 32.2451 22.3076C32.2451 20.1338 32.2451 17.96 32.2451 15.7862C32.2453 15.4068 32.3833 15.0962 32.6592 14.8545C32.8662 14.7165 33.0388 14.544 33.1768 14.3369C33.3992 14.1044 33.6753 13.9492 34.0049 13.8711C34.488 13.8021 34.971 13.8021 35.4541 13.8711C35.6602 13.9098 35.8328 13.9961 35.9717 14.1299Z" fill="#3B4160"/>
<path opacity="0.344" fill-rule="evenodd" clip-rule="evenodd" d="M17.3389 14.0264C17.2899 14.172 17.1864 14.241 17.0283 14.2335C17.0773 14.0879 17.1808 14.0189 17.3389 14.0264Z" fill="black"/>
<path opacity="0.429" fill-rule="evenodd" clip-rule="evenodd" d="M19.4092 14.0263C19.6038 13.9983 19.7418 14.0673 19.8232 14.2334C19.6521 14.2168 19.5141 14.1479 19.4092 14.0263Z" fill="black"/>
<path opacity="0.321" fill-rule="evenodd" clip-rule="evenodd" d="M35.9717 14.13C36.1297 14.1224 36.2333 14.1914 36.2822 14.337C36.1242 14.3445 36.0206 14.2755 35.9717 14.13Z" fill="black"/>
<path opacity="0.376" fill-rule="evenodd" clip-rule="evenodd" d="M17.0283 14.2335C16.9794 14.379 16.8758 14.4481 16.7178 14.4405C16.7667 14.295 16.8703 14.2259 17.0283 14.2335Z" fill="black"/>
<path opacity="0.34" fill-rule="evenodd" clip-rule="evenodd" d="M19.8232 14.2335C19.9813 14.2259 20.0848 14.295 20.1338 14.4405C19.9757 14.4481 19.8722 14.379 19.8232 14.2335Z" fill="black"/>
<path opacity="0.352" fill-rule="evenodd" clip-rule="evenodd" d="M33.1768 14.3369C33.0388 14.5439 32.8662 14.7165 32.6592 14.8545C32.7282 14.5784 32.9007 14.406 33.1768 14.3369Z" fill="black"/>
<path opacity="0.359" fill-rule="evenodd" clip-rule="evenodd" d="M16.5103 14.6475C16.5179 14.8055 16.4488 14.909 16.3033 14.958C16.2957 14.7999 16.3648 14.6964 16.5103 14.6475Z" fill="black"/>
<path opacity="0.317" fill-rule="evenodd" clip-rule="evenodd" d="M20.3404 14.6475C20.4859 14.6964 20.555 14.7999 20.5474 14.958C20.4019 14.909 20.3328 14.8055 20.3404 14.6475Z" fill="black"/>
<path opacity="0.339" fill-rule="evenodd" clip-rule="evenodd" d="M36.6959 14.751C36.8414 14.7999 36.9105 14.9035 36.9029 15.0615C36.7574 15.0126 36.6883 14.909 36.6959 14.751Z" fill="black"/>
<path opacity="0.42" fill-rule="evenodd" clip-rule="evenodd" d="M16.3039 14.958C16.2874 15.1291 16.2184 15.2671 16.0969 15.3721C16.0688 15.1775 16.1379 15.0395 16.3039 14.958Z" fill="black"/>
<path opacity="0.275" fill-rule="evenodd" clip-rule="evenodd" d="M32.2452 15.7861C32.2452 17.96 32.2452 20.1338 32.2452 22.3076C33.9015 22.3076 35.5577 22.3076 37.214 22.3076C37.214 20.2028 37.214 18.0979 37.214 15.9932C37.3172 18.1145 37.3517 20.2539 37.3175 22.4111C35.5922 22.4111 33.867 22.4111 32.1417 22.4111C32.1074 20.1848 32.142 17.9765 32.2452 15.7861Z" fill="black"/>
<path opacity="0.339" fill-rule="evenodd" clip-rule="evenodd" d="M44.6666 26.0342C44.8121 26.0831 44.8812 26.1867 44.8736 26.3447C44.7281 26.2958 44.659 26.1922 44.6666 26.0342Z" fill="black"/>
<path opacity="0.353" fill-rule="evenodd" clip-rule="evenodd" d="M20.6509 26.7588C20.6585 26.9169 20.5895 27.0204 20.4439 27.0693C20.4364 26.9113 20.5054 26.8078 20.6509 26.7588Z" fill="black"/>
<path opacity="0.347" fill-rule="evenodd" clip-rule="evenodd" d="M28.7252 26.8623C28.7327 27.0204 28.6637 27.1239 28.5181 27.1729C28.5106 27.0148 28.5796 26.9113 28.7252 26.8623Z" fill="black"/>
<path opacity="0.335" fill-rule="evenodd" clip-rule="evenodd" d="M24.481 26.9658C24.6266 27.0148 24.6956 27.1183 24.6881 27.2764C24.5425 27.2274 24.4735 27.1239 24.481 26.9658Z" fill="black"/>
<path opacity="0.333" fill-rule="evenodd" clip-rule="evenodd" d="M16.5107 27.1729C16.6487 27.2419 16.7522 27.3454 16.8213 27.4834C16.6143 27.4834 16.5107 27.3799 16.5107 27.1729Z" fill="black"/>
<path opacity="0.363" fill-rule="evenodd" clip-rule="evenodd" d="M24.792 27.38C24.9501 27.3724 25.0536 27.4414 25.1025 27.587C24.9445 27.5945 24.841 27.5255 24.792 27.38Z" fill="black"/>
<path opacity="0.354" fill-rule="evenodd" clip-rule="evenodd" d="M28.208 27.4835C28.159 27.629 28.0555 27.6981 27.8975 27.6905C27.9464 27.545 28.0499 27.4759 28.208 27.4835Z" fill="black"/>
<path opacity="0.317" fill-rule="evenodd" clip-rule="evenodd" d="M13.9224 28.8291C14.068 28.8781 14.137 28.9816 14.1295 29.1396C13.9839 29.0907 13.9149 28.9872 13.9224 28.8291Z" fill="black"/>
<path opacity="0.301" fill-rule="evenodd" clip-rule="evenodd" d="M32.6588 29.0361C32.8043 29.0851 32.8734 29.1886 32.8658 29.3467C32.7203 29.2977 32.6512 29.1942 32.6588 29.0361Z" fill="black"/>
<path opacity="0.325" fill-rule="evenodd" clip-rule="evenodd" d="M22.4111 29.4501C22.5966 29.3494 22.7346 29.4184 22.8252 29.6571C22.6635 29.633 22.5255 29.564 22.4111 29.4501Z" fill="black"/>
<path opacity="0.295" fill-rule="evenodd" clip-rule="evenodd" d="M22.1006 29.7608C22.0516 29.9064 21.9481 29.9754 21.79 29.9678C21.839 29.8223 21.9425 29.7533 22.1006 29.7608Z" fill="black"/>
<path opacity="0.334" fill-rule="evenodd" clip-rule="evenodd" d="M33.2803 29.7608C33.4383 29.7533 33.5419 29.8223 33.5908 29.9678C33.4328 29.9754 33.3292 29.9064 33.2803 29.7608Z" fill="black"/>
<path opacity="0.38" fill-rule="evenodd" clip-rule="evenodd" d="M14.8545 29.8643C15.0126 29.8568 15.1161 29.9258 15.165 30.0714C15.007 30.0789 14.9035 30.0099 14.8545 29.8643Z" fill="black"/>
<path opacity="0.38" fill-rule="evenodd" clip-rule="evenodd" d="M23.1357 29.9678C23.2938 29.9603 23.3973 30.0293 23.4463 30.1749C23.2882 30.1824 23.1847 30.1134 23.1357 29.9678Z" fill="black"/>
<path opacity="0.128" fill-rule="evenodd" clip-rule="evenodd" d="M29.6572 30.1748C29.7735 30.0447 29.8424 30.0792 29.8643 30.2783C29.7952 30.2438 29.7263 30.2093 29.6572 30.1748Z" fill="black"/>
<path opacity="0.371" fill-rule="evenodd" clip-rule="evenodd" d="M23.4463 30.1749C23.6044 30.1673 23.7079 30.2364 23.7568 30.3819C23.5988 30.3895 23.4953 30.3204 23.4463 30.1749Z" fill="black"/>
<path opacity="0.351" fill-rule="evenodd" clip-rule="evenodd" d="M15.4756 30.2784C15.6337 30.2708 15.7372 30.3399 15.7861 30.4854C15.6281 30.493 15.5245 30.4239 15.4756 30.2784Z" fill="black"/>
<path opacity="0.382" fill-rule="evenodd" clip-rule="evenodd" d="M21.376 30.2784C21.327 30.4239 21.2235 30.493 21.0654 30.4854C21.1144 30.3399 21.2179 30.2708 21.376 30.2784Z" fill="black"/>
<path opacity="0.355" fill-rule="evenodd" clip-rule="evenodd" d="M39.6982 30.7959C39.9053 30.7959 40.0088 30.8994 40.0088 31.1064C39.8708 31.0374 39.7673 30.9339 39.6982 30.7959Z" fill="black"/>
<path opacity="0.343" fill-rule="evenodd" clip-rule="evenodd" d="M30.4854 31.21C30.6677 31.2888 30.7713 31.4269 30.7959 31.624C30.6135 31.5451 30.51 31.4071 30.4854 31.21Z" fill="black"/>
<path opacity="0.375" fill-rule="evenodd" clip-rule="evenodd" d="M31.1064 31.9346C31.2645 31.9271 31.368 31.9961 31.417 32.1417C31.2589 32.1492 31.1554 32.0802 31.1064 31.9346Z" fill="black"/>
<path opacity="0.297" fill-rule="evenodd" clip-rule="evenodd" d="M40.1119 32.7627C40.1194 32.9208 40.0504 33.0243 39.9049 33.0732C39.8973 32.9152 39.9663 32.8117 40.1119 32.7627Z" fill="black"/>
<path opacity="0.398" fill-rule="evenodd" clip-rule="evenodd" d="M32.0381 32.8663C31.9891 33.0118 31.8856 33.0809 31.7275 33.0733C31.7765 32.9278 31.88 32.8587 32.0381 32.8663Z" fill="black"/>
<path opacity="0.401" fill-rule="evenodd" clip-rule="evenodd" d="M39.8018 33.1768C39.7528 33.3224 39.6493 33.3914 39.4912 33.3839C39.5402 33.2383 39.6437 33.1693 39.8018 33.1768Z" fill="black"/>
<path opacity="0.338" fill-rule="evenodd" clip-rule="evenodd" d="M30.5884 34.2119C30.596 34.37 30.527 34.4735 30.3814 34.5225C30.3739 34.3644 30.4429 34.2609 30.5884 34.2119Z" fill="black"/>
<path opacity="0.352" fill-rule="evenodd" clip-rule="evenodd" d="M30.1744 34.7295C30.1819 34.8876 30.1129 34.9911 29.9674 35.04C29.9598 34.882 30.0288 34.7785 30.1744 34.7295Z" fill="black"/>
<path opacity="0.305" fill-rule="evenodd" clip-rule="evenodd" d="M34.2119 35.0401C34.163 35.1857 34.0594 35.2547 33.9014 35.2471C33.9503 35.1016 34.0538 35.0326 34.2119 35.0401Z" fill="black"/>
<path opacity="0.372" fill-rule="evenodd" clip-rule="evenodd" d="M29.5533 35.6611C29.5609 35.8192 29.4918 35.9227 29.3463 35.9717C29.3387 35.8136 29.4078 35.7101 29.5533 35.6611Z" fill="black"/>
<path opacity="0.34" fill-rule="evenodd" clip-rule="evenodd" d="M33.4873 35.6611C33.4183 35.7991 33.3147 35.9026 33.1768 35.9717C33.1768 35.7646 33.2803 35.6611 33.4873 35.6611Z" fill="black"/>
<path opacity="0.374" fill-rule="evenodd" clip-rule="evenodd" d="M32.7623 36.3857C32.7698 36.5438 32.7008 36.6473 32.5552 36.6963C32.5477 36.5382 32.6167 36.4347 32.7623 36.3857Z" fill="black"/>
<path opacity="0.32" fill-rule="evenodd" clip-rule="evenodd" d="M32.4517 36.7998C32.4593 36.9579 32.3902 37.0614 32.2447 37.1104C32.2371 36.9523 32.3062 36.8488 32.4517 36.7998Z" fill="black"/>
<path opacity="0.308" fill-rule="evenodd" clip-rule="evenodd" d="M30.7955 42.0791C30.803 42.2372 30.734 42.3407 30.5884 42.3896C30.5809 42.2316 30.6499 42.1281 30.7955 42.0791Z" fill="black"/>
<path opacity="0.295" fill-rule="evenodd" clip-rule="evenodd" d="M28.3115 42.2861C28.415 42.3206 28.4841 42.3896 28.5186 42.4932C28.3806 42.4932 28.3115 42.4241 28.3115 42.2861Z" fill="black"/>
<path opacity="0.384" fill-rule="evenodd" clip-rule="evenodd" d="M30.4854 42.4932C30.4364 42.6388 30.3329 42.7078 30.1748 42.7003C30.2238 42.5547 30.3273 42.4857 30.4854 42.4932Z" fill="black"/>
<path opacity="0.334" fill-rule="evenodd" clip-rule="evenodd" d="M43.3209 43.6318C43.3284 43.7899 43.2594 43.8934 43.1138 43.9424C43.1063 43.7843 43.1753 43.6808 43.3209 43.6318Z" fill="black"/>
<path opacity="0.327" fill-rule="evenodd" clip-rule="evenodd" d="M42.5963 44.5635C42.6038 44.7215 42.5348 44.8251 42.3892 44.874C42.3817 44.716 42.4507 44.6124 42.5963 44.5635Z" fill="black"/>
<path opacity="0.317" fill-rule="evenodd" clip-rule="evenodd" d="M41.8717 45.4951C41.8792 45.6532 41.8102 45.7567 41.6646 45.8057C41.6571 45.6476 41.7261 45.5441 41.8717 45.4951Z" fill="black"/>
<path opacity="0.312" fill-rule="evenodd" clip-rule="evenodd" d="M10.4029 46.0127C10.5484 46.0617 10.6175 46.1652 10.6099 46.3232C10.4644 46.2743 10.3953 46.1708 10.4029 46.0127Z" fill="black"/>
<path opacity="0.381" fill-rule="evenodd" clip-rule="evenodd" d="M41.4576 46.0127C41.4651 46.1708 41.3961 46.2743 41.2506 46.3232C41.243 46.1652 41.312 46.0617 41.4576 46.0127Z" fill="black"/>
<path opacity="0.308" fill-rule="evenodd" clip-rule="evenodd" d="M41.147 46.4268C41.1546 46.5848 41.0856 46.6883 40.94 46.7373C40.9325 46.5792 41.0015 46.4757 41.147 46.4268Z" fill="black"/>
<path opacity="0.34" fill-rule="evenodd" clip-rule="evenodd" d="M10.817 46.5303C10.9625 46.5792 11.0316 46.6828 11.024 46.8408C10.8785 46.7919 10.8094 46.6883 10.817 46.5303Z" fill="black"/>
<path opacity="0.371" fill-rule="evenodd" clip-rule="evenodd" d="M40.733 46.9443C40.7405 47.1024 40.6715 47.2059 40.5259 47.2549C40.5184 47.0968 40.5874 46.9933 40.733 46.9443Z" fill="black"/>
<path opacity="0.302" fill-rule="evenodd" clip-rule="evenodd" d="M40.4224 47.3584C40.43 47.5165 40.3609 47.62 40.2154 47.6689C40.2078 47.5109 40.2769 47.4074 40.4224 47.3584Z" fill="black"/>
<path opacity="0.366" fill-rule="evenodd" clip-rule="evenodd" d="M40.0084 47.876C40.0159 48.034 39.9469 48.1376 39.8013 48.1865C39.7938 48.0285 39.8628 47.9249 40.0084 47.876Z" fill="black"/>
<path opacity="0.292" fill-rule="evenodd" clip-rule="evenodd" d="M39.6978 48.29C39.7054 48.4481 39.6363 48.5516 39.4908 48.6006C39.4832 48.4425 39.5523 48.339 39.6978 48.29Z" fill="black"/>
<path opacity="0.36" fill-rule="evenodd" clip-rule="evenodd" d="M39.2838 48.8076C39.2913 48.9657 39.2223 49.0692 39.0767 49.1182C39.0692 48.9601 39.1382 48.8566 39.2838 48.8076Z" fill="black"/>
<path opacity="0.371" fill-rule="evenodd" clip-rule="evenodd" d="M37.9385 52.2236C37.904 52.4651 37.7659 52.6032 37.5244 52.6377C37.6279 52.4651 37.7659 52.3271 37.9385 52.2236Z" fill="black"/>
</g>
<defs>
<clipPath id="clip0_128_44">
<rect width="53" height="53" fill="white"/>
</clipPath>
</defs>
</svg>
