<svg width="57" height="57" viewBox="0 0 57 57" fill="none" xmlns="http://www.w3.org/2000/svg">
<path fill-rule="evenodd" clip-rule="evenodd" d="M35.443 24.127C35.443 24.127 35.4379 24.126 35.429 24.1236C38.1753 23.3622 42.9851 23.4641 44.3981 23.5659C44.5656 23.5779 44.7331 23.5889 44.9001 23.5998C47.2086 23.7508 49.3966 23.8939 49.7952 26.7054C50.0706 28.6672 49.444 30.4586 46.6867 30.8749L46.6871 30.8735C46.6871 30.8735 45.9627 30.9325 44.6859 31.0667C44.1275 31.1151 43.568 31.1694 43.0563 31.2467C42.1348 31.3532 41.0627 31.4847 39.8694 31.6439C35.7369 32.1961 32.4327 31.9423 32.1343 29.5242C31.9161 27.7519 32.2145 26.6253 32.9804 25.748C33.9245 24.6659 35.443 24.127 35.443 24.127ZM46.0637 32.0091L46.0623 32.0092C46.0223 32.0142 45.9769 32.0187 45.9267 32.0228C45.3144 32.085 42.6193 32.3694 37.2154 33.0778C34.3342 33.4519 32.3214 33.7547 32.3214 36.0481C32.3214 36.2956 32.342 36.5147 32.3578 36.6818C32.3627 36.7342 32.3672 36.7815 32.3704 36.8229C32.4728 37.9763 33.3233 40.0915 37.3044 39.9846C40.4615 39.8999 45.1113 39.7843 46.9008 39.7401C47.1712 39.7248 47.399 39.7179 47.5744 39.7235L47.6401 39.7219L47.6322 39.7259L47.6399 39.7263C50.2317 39.8688 52.0574 37.9985 51.7368 35.576C51.4139 33.1305 49.4751 31.9457 47.0415 31.9476L47.0479 31.9512C46.7317 31.9467 46.4066 31.969 46.0637 32.0091ZM47.2883 41.1736L47.2869 41.1708C49.1074 41.7177 50.0762 43.0177 50.0446 44.6337C49.9956 47.123 47.6667 48.0581 46.0012 48.1962C45.7342 48.2181 45.3199 48.2294 44.8041 48.2313C44.8517 48.22 44.8917 48.2185 44.9148 48.2185L44.1043 48.1739L41.2187 48.0092C38.342 47.8355 34.2896 47.5594 33.8221 47.3724C33.8221 47.3724 30.9988 46.6599 30.9988 43.7653C30.9988 43.7653 30.8518 41.3027 34.6192 41.187C34.6192 41.187 43.521 40.6749 47.2883 41.1736ZM38.4562 48.8097L39.0697 48.8342C40.7818 48.9156 42.8655 49.0165 42.9953 49.0245C45.6271 49.2204 46.7493 50.1734 46.6825 52.0526C46.589 54.6888 43.7746 55.388 42.2517 55.6284C42.0213 55.665 41.7837 55.6971 41.5404 55.7254C41.628 55.7138 41.7095 55.7022 41.7843 55.6908C42.1847 55.6296 41.3513 55.5833 39.9559 55.5058C38.2014 55.4084 35.5586 55.2616 33.3634 54.9738C32.2323 54.8269 30.883 53.7626 30.6648 52.3287C30.6648 52.3287 30.3442 50.4361 32.072 49.3451C32.072 49.3451 32.8023 48.7172 36.1911 48.7439L37.2154 48.7573C37.3173 48.7644 37.8006 48.7836 38.4562 48.8097ZM13.3063 51.9991C17.9265 56.0469 27.4597 56.1241 32.9416 56.0004C31.1318 55.7119 28.8746 54.4846 28.8746 51.3267C28.8746 49.0913 30.2952 48.0671 31.0478 47.9067C29.9033 47.3501 28.7633 45.7158 28.7633 43.6184C28.7633 41.0756 31.3194 39.8778 32.4995 39.9045C32.4372 39.8718 31.5041 39.3534 30.8704 38.2229C29.117 42.4084 25.8034 44.6623 25.6061 44.7965C25.6 44.8007 25.5969 44.8028 25.5969 44.8029C24.1096 45.9384 23.7578 45.3328 23.7578 45.3328C23.2546 44.8118 24.2921 44.1171 24.2921 44.1171C30.3947 39.9233 30.6445 34.3018 30.3996 31.7956C29.9065 31.1079 29.6688 30.1548 29.5827 28.9409C29.3914 26.1911 31.6941 24.0505 35.0605 23.6205C35.0061 22.7368 35.8192 20.8554 36.7823 18.627C38.162 15.4346 39.8496 11.5301 39.7356 8.82609C39.7296 8.68266 39.7243 8.53144 39.7189 8.37372C39.6233 5.62275 39.459 0.890625 33.8575 0.890625C31.0594 0.890625 30.1749 3.58256 28.8567 7.5944C28.5826 8.4285 28.2898 9.31966 27.9571 10.2555C26.9418 13.11 24.7152 17.9862 20.9034 20.9831C19.6787 21.945 17.1588 22.8846 14.4453 23.8964L14.4453 23.8965C12.0082 24.8052 9.41498 25.7721 7.46384 26.8657C5.04204 28.2234 5.18123 33.0794 5.26786 36.1019C5.28637 36.7475 5.30247 37.3094 5.29072 37.7358C5.15267 42.7455 5.4154 46.7088 8.45689 47.9201C9.46686 48.3228 10.5997 49.4218 11.7654 50.5526C12.2753 51.0472 12.7914 51.5479 13.3063 51.9991Z" fill="#3B4262"/>
</svg>
