<svg width="157" height="68" viewBox="0 0 157 68" fill="none" xmlns="http://www.w3.org/2000/svg">
<g filter="url(#filter0_dd_125_8)">
<path d="M24.2323 59.664C20.4143 59.664 17.0667 59 14.1893 57.672C11.312 56.2887 9.07099 54.3797 7.46632 51.945C5.91699 49.455 5.14232 46.6053 5.14232 43.396V41.238C5.14232 40.9613 5.22532 40.74 5.39132 40.574C5.61265 40.3527 5.86165 40.242 6.13832 40.242H15.6833C15.96 40.242 16.1813 40.3527 16.3473 40.574C16.5687 40.74 16.6793 40.9613 16.6793 41.238V42.815C16.6793 44.7517 17.3987 46.384 18.8373 47.712C20.276 48.9847 22.2127 49.621 24.6473 49.621C26.8053 49.621 28.4377 49.0677 29.5443 47.961C30.7063 46.8543 31.2873 45.4433 31.2873 43.728C31.2873 42.4553 30.9277 41.3763 30.2083 40.491C29.489 39.5503 28.4653 38.6927 27.1373 37.918C25.8647 37.088 23.8727 35.9813 21.1613 34.598C17.8413 32.938 15.13 31.3887 13.0273 29.95C10.9247 28.5113 9.12632 26.6577 7.63232 24.389C6.13832 22.1203 5.39132 19.3813 5.39132 16.172C5.39132 12.9627 6.13832 10.1683 7.63232 7.789C9.18165 5.35433 11.3397 3.50067 14.1063 2.228C16.873 0.899999 20.027 0.236 23.5683 0.236C27.2757 0.236 30.568 0.955332 33.4453 2.394C36.3227 3.77733 38.5637 5.74167 40.1683 8.287C41.773 10.8323 42.5753 13.765 42.5753 17.085V18.745C42.5753 19.0217 42.4647 19.2707 42.2433 19.492C42.0773 19.658 41.856 19.741 41.5793 19.741H32.0343C31.7577 19.741 31.5087 19.658 31.2873 19.492C31.1213 19.2707 31.0383 19.0217 31.0383 18.745V17.251C31.0383 15.259 30.3467 13.599 28.9633 12.271C27.58 10.943 25.6987 10.279 23.3193 10.279C21.3273 10.279 19.7503 10.8047 18.5883 11.856C17.4817 12.852 16.9283 14.263 16.9283 16.089C16.9283 17.3617 17.2603 18.4683 17.9243 19.409C18.5883 20.3497 19.612 21.2627 20.9953 22.148C22.3787 22.978 24.4813 24.0847 27.3033 25.468L29.0463 26.464C32.2557 28.2347 34.7457 29.784 36.5163 31.112C38.3423 32.3847 39.864 34.017 41.0813 36.009C42.2987 38.001 42.9073 40.408 42.9073 43.23C42.9073 48.2653 41.192 52.277 37.7613 55.265C34.386 58.1977 29.8763 59.664 24.2323 59.664ZM68.5154 59.664C64.7527 59.664 61.4327 58.8893 58.5554 57.34C55.6781 55.7907 53.4371 53.6327 51.8324 50.866C50.2831 48.044 49.5084 44.807 49.5084 41.155V1.896C49.5084 1.61933 49.5914 1.398 49.7574 1.232C49.9787 1.01066 50.2277 0.899996 50.5044 0.899996H60.2154C60.4921 0.899996 60.7134 1.01066 60.8794 1.232C61.1007 1.398 61.2114 1.61933 61.2114 1.896V41.736C61.2114 44.1153 61.8754 46.0243 63.2034 47.463C64.5314 48.9017 66.3021 49.621 68.5154 49.621C70.7287 49.621 72.4994 48.9017 73.8274 47.463C75.1554 46.0243 75.8194 44.1153 75.8194 41.736V1.896C75.8194 1.61933 75.9024 1.398 76.0684 1.232C76.2897 1.01066 76.5387 0.899996 76.8154 0.899996H86.5264C86.8031 0.899996 87.0244 1.01066 87.1904 1.232C87.4118 1.398 87.5224 1.61933 87.5224 1.896V41.155C87.5224 44.807 86.7201 48.044 85.1154 50.866C83.5661 53.6327 81.3527 55.7907 78.4754 57.34C75.5981 58.8893 72.2781 59.664 68.5154 59.664ZM96.8774 59C96.6008 59 96.3518 58.917 96.1304 58.751C95.9644 58.5297 95.8814 58.2807 95.8814 58.004V1.896C95.8814 1.61933 95.9644 1.398 96.1304 1.232C96.3518 1.01066 96.6008 0.899996 96.8774 0.899996H106.588C106.865 0.899996 107.086 1.01066 107.252 1.232C107.474 1.398 107.584 1.61933 107.584 1.896V58.004C107.584 58.2807 107.474 58.5297 107.252 58.751C107.086 58.917 106.865 59 106.588 59H96.8774ZM152.412 0.899996C152.689 0.899996 152.91 1.01066 153.076 1.232C153.298 1.398 153.408 1.61933 153.408 1.896V10.03C153.408 10.3067 153.298 10.5557 153.076 10.777C152.91 10.943 152.689 11.026 152.412 11.026H139.796C139.52 11.026 139.381 11.1643 139.381 11.441V58.004C139.381 58.2807 139.271 58.5297 139.049 58.751C138.883 58.917 138.662 59 138.385 59H128.674C128.398 59 128.149 58.917 127.927 58.751C127.761 58.5297 127.678 58.2807 127.678 58.004V11.441C127.678 11.1643 127.54 11.026 127.263 11.026H115.062C114.786 11.026 114.537 10.943 114.315 10.777C114.149 10.5557 114.066 10.3067 114.066 10.03V1.896C114.066 1.61933 114.149 1.398 114.315 1.232C114.537 1.01066 114.786 0.899996 115.062 0.899996H152.412Z" fill="white"/>
</g>
<defs>
<filter id="filter0_dd_125_8" x="0.142578" y="0.236084" width="156.266" height="67.428" filterUnits="userSpaceOnUse" color-interpolation-filters="sRGB">
<feFlood flood-opacity="0" result="BackgroundImageFix"/>
<feColorMatrix in="SourceAlpha" type="matrix" values="0 0 0 0 0 0 0 0 0 0 0 0 0 0 0 0 0 0 127 0" result="hardAlpha"/>
<feOffset dx="-1" dy="4"/>
<feGaussianBlur stdDeviation="2"/>
<feComposite in2="hardAlpha" operator="out"/>
<feColorMatrix type="matrix" values="0 0 0 0 0 0 0 0 0 0 0 0 0 0 0 0 0 0 0.1 0"/>
<feBlend mode="normal" in2="BackgroundImageFix" result="effect1_dropShadow_125_8"/>
<feColorMatrix in="SourceAlpha" type="matrix" values="0 0 0 0 0 0 0 0 0 0 0 0 0 0 0 0 0 0 127 0" result="hardAlpha"/>
<feOffset dx="-1" dy="4"/>
<feGaussianBlur stdDeviation="2"/>
<feComposite in2="hardAlpha" operator="out"/>
<feColorMatrix type="matrix" values="0 0 0 0 0 0 0 0 0 0 0 0 0 0 0 0 0 0 0.1 0"/>
<feBlend mode="normal" in2="effect1_dropShadow_125_8" result="effect2_dropShadow_125_8"/>
<feBlend mode="normal" in="SourceGraphic" in2="effect2_dropShadow_125_8" result="shape"/>
</filter>
</defs>
</svg>
